PathFileType	4	(X/Y/Z)	/Users/itak/Documents/Research/Walk-IL/dataset/trc/00490_00167.trc
DataRate	CameraRate	NumFrames	NumMarkers	Units	OrigDataRate	OrigDataStartFrame	OrigNumFrames
100.000000	100.000000	4	53	mm	100.000000	406	542
Frame#	Time	RPSI			LPSI			L3			STRN			T10			C7			CLAV			RBAK			LBAK			LSHO			LUPA			LAEL			LAOL			LWTS			LWPS			LFRA			LIFD			LHPS			LHTS			RSHO			RUPA			RAEL			RAOL			RWTS			RWPS			RFRA			RIFD			RHTS			RHPS			RBHD			LFHD			RFHD			LBHD			LHIP			RHIP			RASI			LASI			LKNE			LTHI			LANK			LTIP			LTOE			LMT1			LMT5			LHEE			RKNE			RTHI			RANK			RTIP			RTOE			RMT1			RMT5			RHEE			
		X1	Y1	Z1	X2	Y2	Z2	X3	Y3	Z3	X4	Y4	Z4	X5	Y5	Z5	X6	Y6	Z6	X7	Y7	Z7	X8	Y8	Z8	X9	Y9	Z9	X10	Y10	Z10	X11	Y11	Z11	X12	Y12	Z12	X13	Y13	Z13	X14	Y14	Z14	X15	Y15	Z15	X16	Y16	Z16	X17	Y17	Z17	X18	Y18	Z18	X19	Y19	Z19	X20	Y20	Z20	X21	Y21	Z21	X22	Y22	Z22	X23	Y23	Z23	X24	Y24	Z24	X25	Y25	Z25	X26	Y26	Z26	X27	Y27	Z27	X28	Y28	Z28	X29	Y29	Z29	X30	Y30	Z30	X31	Y31	Z31	X32	Y32	Z32	X33	Y33	Z33	X34	Y34	Z34	X35	Y35	Z35	X36	Y36	Z36	X37	Y37	Z37	X38	Y38	Z38	X39	Y39	Z39	X40	Y40	Z40	X41	Y41	Z41	X42	Y42	Z42	X43	Y43	Z43	X44	Y44	Z44	X45	Y45	Z45	X46	Y46	Z46	X47	Y47	Z47	X48	Y48	Z48	X49	Y49	Z49	X50	Y50	Z50	X51	Y51	Z51	X52	Y52	Z52	X53	Y53	Z53	

407	4.06	226.1223754882812	905.161865234375	7.94800853729248	88.07848358154297	916.259765625	-23.27038955688477	162.9433441162109	1015.831848144531	-16.2830924987793	206.1373291015625	1210.032836914062	-300.2240600585938	149.3756561279297	1139.459716796875	-14.23355865478516	169.0510101318359	1407.895874023438	-85.08679962158203	194.0342254638672	1323.510986328125	-266.4847717285156	249.9309692382812	1289.956909179688	-3.595108985900879	65.05970764160156	1358.38623046875	-72.30828857421875	7.944795608520508	1377.409912109375	-188.1964416503906	-87.63031005859375	1257.436401367188	-206.9200439453125	-115.3758392333984	1046.852416992188	-257.1373901367188	-69.08425140380859	1022.264892578125	-166.8062896728516	-63.56594848632812	850.00048828125	-343.1290283203125	-127.662956237793	835.0086059570312	-309.1556091308594	-122.7760696411133	961.7664794921875	-286.4779968261719	-80.53148651123047	691.3180541992188	-370.2620239257812	-131.8327484130859	760.2310791015625	-328.2677001953125	-75.12709045410156	768.781982421875	-372.5353088378906	338.82861328125	1378.055541992188	-119.0273666381836	409.5643615722656	1322.103881835938	-83.64211273193359	497.3904418945312	1047.55419921875	-60.22381591796875	447.3045349121094	1023.085083007812	-21.18367958068848	500.3524169921875	847.8806762695312	-179.6746673583984	543.1487426757812	833.12548828125	-103.219856262207	514.5065307617188	990.4432983398438	-63.97484970092773	524.5471801757812	692.8546142578125	-188.5537109375	525.5040893554688	753.1382446289062	-197.5471954345703	553.541259765625	747.1416625976562	-125.7685623168945	263.8983154296875	1611.223022460938	-164.8797912597656	110.9446868896484	1617.50830078125	-303.4923706054688	240.8124084472656	1627.371459960938	-299.7776184082031	87.42901611328125	1602.383178710938	-153.1173248291016	-3.73455810546875	829.6676025390625	-184.6965637207031	388.2044677734375	820.5089111328125	-93.17389678955078	342.756591796875	874.7755126953125	-199.3171691894531	93.47612762451172	863.3079223632812	-264.4354248046875	38.90262985229492	412.3830871582031	-137.6670379638672	29.25522804260254	563.6266479492188	-190.9379272460938	-34.14192199707031	53.06538772583008	85.26033020019531	7.460071563720703	268.6075134277344	-75.66839599609375	163.2665557861328	37.30814743041992	-60.54159927368164	133.4863433837891	52.5993766784668	13.8989782333374	40.76981735229492	39.91141510009766	-50.04059600830078	-3.611245393753052	74.63007354736328	154.3915100097656	430.368408203125	465.3671264648438	-257.22607421875	428.6150817871094	709.0763549804688	-166.8493347167969	493.8717956542969	32.18843460083008	-333.6022644042969	464.1595153808594	334.2052001953125	-296.8038635253906	462.4756469726562	105.2982406616211	-540.1690673828125	420.72412109375	87.44118499755859	-480.7926940917969	521.3333129882812	62.63224792480469	-457.8329772949219	442.0948791503906	20.25749397277832	-273.7835998535156	
408	4.07	233.6337585449219	904.23193359375	1.234803795814514	95.33325958251953	915.6400756835938	-29.27651405334473	170.6619415283203	1014.733154296875	-22.76686859130859	211.9953918457031	1209.56201171875	-306.2591552734375	157.9290618896484	1138.684692382812	-20.17862701416016	177.4417114257812	1407.370849609375	-90.59709167480469	200.3378143310547	1323.00732421875	-272.3263549804688	258.8695068359375	1289.079956054688	-10.05294704437256	73.64833831787109	1357.870239257812	-76.67269897460938	15.07883548736572	1376.956298828125	-191.8407745361328	-80.80344390869141	1256.839233398438	-208.9651031494141	-110.8413772583008	1046.612548828125	-256.9232788085938	-62.41930389404297	1022.576171875	-167.5047454833984	-65.88518524169922	846.2925415039062	-339.7022094726562	-129.2457885742188	834.1000366210938	-303.1602783203125	-120.6559295654297	961.1331176757812	-284.2098083496094	-88.73680114746094	687.2556762695312	-361.1358642578125	-136.1954193115234	759.0997314453125	-319.8187255859375	-80.83619689941406	764.2633666992188	-366.0138854980469	346.8321838378906	1377.211547851562	-126.2842559814453	417.7287292480469	1320.940185546875	-91.70107269287109	504.9765625	1046.057983398438	-69.41886901855469	455.1734924316406	1021.771240234375	-29.85821914672852	505.78857421875	846.5554809570312	-188.9609985351562	549.3531494140625	831.4498291015625	-112.9630126953125	521.8284912109375	988.8917236328125	-73.34318542480469	528.9093017578125	691.2697143554688	-198.0669708251953	530.0951538085938	751.5665893554688	-207.0742645263672	558.9672241210938	745.3847045898438	-135.6395263671875	271.3552551269531	1610.95458984375	-171.3728942871094	117.2497863769531	1617.035034179688	-308.6978149414062	247.1550445556641	1626.88427734375	-306.1198425292969	94.99493408203125	1602.154907226562	-158.0722045898438	1.817293286323547	829.4436645507812	-189.983154296875	394.84765625	819.4935302734375	-101.4957427978516	348.7100524902344	873.9855346679688	-207.3530578613281	98.82155609130859	862.552001953125	-270.3399047851562	41.64310836791992	412.3747863769531	-141.1082000732422	33.01993942260742	563.3627319335938	-195.2388458251953	-34.14760208129883	55.08103561401367	84.63996124267578	8.963142395019531	269.4268798828125	-77.96078491210938	163.3780059814453	37.30644226074219	-60.56609725952148	133.455810546875	52.97982025146484	13.47962951660156	40.86349487304688	39.98919296264648	-50.13801193237305	-3.525794506072998	77.48067474365234	153.5398864746094	434.1182556152344	465.2881164550781	-267.9377136230469	433.7619323730469	708.0873413085938	-176.3922576904297	493.9341430664062	31.20060539245605	-335.1877136230469	466.427490234375	332.8529052734375	-305.997314453125	462.2088623046875	96.80117034912109	-544.6257934570312	420.6632995605469	81.31341552734375	-484.5142517089844	521.480224609375	57.4646110534668	-460.6065979003906	442.1612243652344	21.15859222412109	-274.9398803710938	
409	4.08	240.9622650146484	903.6171875	-5.478836059570312	102.403076171875	915.1716918945312	-35.27873992919922	178.2645416259766	1013.912963867188	-29.37556838989258	217.8941345214844	1209.274780273438	-312.3295593261719	166.4447937011719	1138.219482421875	-26.24520111083984	185.8733978271484	1407.09814453125	-96.26297760009766	206.6424102783203	1322.658447265625	-278.2169494628906	267.8640441894531	1288.450317382812	-16.63213920593262	82.27033996582031	1357.613525390625	-81.21145629882812	22.28258323669434	1376.729370117188	-195.6749420166016	-73.89167785644531	1256.460083007812	-211.0623626708984	-106.2152099609375	1046.658569335938	-256.6131591796875	-55.66858673095703	1023.161315917969	-168.1906280517578	-67.87522125244141	843.1669311523438	-335.9921875	-130.3632965087891	833.7830200195312	-297.0272216796875	-118.3044662475586	960.8948974609375	-281.8154296875	-96.32584381103516	684.048583984375	-351.3783569335938	-139.9818115234375	758.71044921875	-311.1068115234375	-86.00228118896484	760.4715576171875	-359.0337524414062	354.8701171875	1376.560546875	-133.6410369873047	425.9066772460938	1319.94140625	-99.84939575195312	512.5323486328125	1044.728271484375	-78.72300720214844	463.0546569824219	1020.646240234375	-38.59949493408203	511.1259460449219	845.3219604492188	-198.2351837158203	555.4970092773438	829.9094848632812	-122.7066421508789	529.1176147460938	987.5123291015625	-82.79563903808594	533.0322265625	689.759521484375	-207.4080963134766	534.4703979492188	750.0562744140625	-216.5021209716797	564.2471923828125	743.7294921875	-145.4411468505859	278.9251403808594	1610.892333984375	-177.9621429443359	123.675895690918	1616.821044921875	-313.9866638183594	253.6177062988281	1626.625732421875	-312.5431823730469	102.6831512451172	1602.16015625	-163.1284332275391	7.243968963623047	829.3045654296875	-195.1998138427734	401.3687438964844	818.8734741210938	-109.7916030883789	354.5927124023438	873.5818481445312	-215.3181457519531	104.1460037231445	862.0123901367188	-276.2259521484375	44.48524475097656	412.4480590820312	-144.9335784912109	36.83787155151367	563.233154296875	-199.7312164306641	-34.08938598632812	57.3746452331543	83.92967987060547	10.54139709472656	270.3897705078125	-80.52112579345703	163.4750823974609	37.29428482055664	-60.65355682373047	133.4041748046875	53.41231918334961	12.97032260894775	40.99392700195312	40.07302474975586	-50.2831916809082	-3.327082633972168	80.72415161132812	152.5250854492188	438.0845336914062	465.7620239257812	-278.7639465332031	438.7998657226562	707.6141967773438	-186.0121917724609	494.12158203125	30.57466888427734	-336.1788940429688	468.9520263671875	331.9644165039062	-315.0423583984375	462.1600036621094	88.64741516113281	-548.3141479492188	420.8524475097656	75.61736297607422	-487.5273742675781	521.9676513671875	52.73771667480469	-462.7582397460938	442.3675231933594	22.23220252990723	-275.6347961425781	
410	4.09	248.0699768066406	903.3563842773438	-12.18755340576172	109.2662887573242	914.8984985351562	-41.23884582519531	185.7312927246094	1013.433532714844	-36.08881378173828	223.8360137939453	1209.198974609375	-318.4520263671875	174.8842010498047	1138.105834960938	-32.40791702270508	194.3166046142578	1407.09375	-102.0846176147461	212.9583435058594	1322.506713867188	-284.1791381835938	276.8840026855469	1288.108154296875	-23.32194900512695	90.88243865966797	1357.651000976562	-85.94209289550781	29.53943252563477	1376.762451171875	-199.7305450439453	-66.93360900878906	1256.361450195312	-213.2235107421875	-101.5051956176758	1047.028564453125	-256.1873168945312	-48.84283828735352	1024.068725585938	-168.8388977050781	-69.48602294921875	840.6986694335938	-332.0296020507812	-130.9626159667969	834.0730590820312	-290.8084716796875	-115.7245788574219	961.0867919921875	-279.2752685546875	-103.1324920654297	681.7826538085938	-341.1219482421875	-143.1067504882812	759.0739135742188	-302.2195739746094	-90.52338409423828	757.5116577148438	-351.7042236328125	362.9097595214844	1376.125122070312	-141.0994873046875	434.0781860351562	1319.1484375	-108.0860748291016	520.0302124023438	1043.601928710938	-88.13420104980469	470.9278564453125	1019.753784179688	-47.40274429321289	516.3771362304688	844.2184448242188	-207.4884185791016	561.5797729492188	828.5475463867188	-132.4386749267578	536.349365234375	986.3455810546875	-92.32682037353516	536.96337890625	688.36865234375	-216.5601196289062	538.674072265625	748.651123046875	-225.8176574707031	569.4103393554688	742.2275390625	-155.1537933349609	286.5915832519531	1611.017333984375	-184.6384735107422	130.2157592773438	1616.87353515625	-319.3617858886719	260.1898193359375	1626.599853515625	-319.0372009277344	110.4790267944336	1602.387084960938	-168.2915496826172	12.57783031463623	829.2796630859375	-200.3123626708984	407.717529296875	818.6884155273438	-118.0475234985352	360.3508911132812	873.5968017578125	-223.1837158203125	109.4044036865234	861.7224731445312	-282.0643615722656	47.39797973632812	412.5881652832031	-149.2284088134766	40.68385314941406	563.2511596679688	-204.4508056640625	-33.94955062866211	59.96828842163086	83.12654113769531	12.16392707824707	271.493896484375	-83.39938354492188	163.5554962158203	37.27850341796875	-60.81010818481445	133.3547821044922	53.89731979370117	12.35751628875732	41.15681457519531	40.15533447265625	-50.48675155639648	-2.979694843292236	84.39653015136719	151.3178405761719	442.2242736816406	466.6973571777344	-289.5774536132812	443.7691345214844	707.7205200195312	-195.6744995117188	494.3808288574219	30.26300239562988	-336.7939453125	471.6783752441406	331.4448547363281	-323.856689453125	462.2118225097656	81.25400543212891	-551.2688598632812	421.185546875	70.61887359619141	-489.9063415527344	522.7090454101562	48.71775054931641	-464.4304504394531	442.6698913574219	23.34344863891602	-276.0709838867188	
